<?xml version="1.0" encoding="UTF-8"?>
<svg viewBox="0 0 64 64" xmlns="http://www.w3.org/2000/svg">
<g fill="none" fill-rule="evenodd">
<path d="M0 0h64v64H0z"/>
<path d="M56 38v19a1 1 0 0 1-1 1h-3a1 1 0 0 1-1-1V39h-3a8 8 0 0 1-8-8V13a8 8 0 0 1 8-8h7a1 1 0 0 1 1 1v32zm-32-9.633c3.305-.99 5.6-3.925 5.6-7.549V10.273 7.636C29.6 6.055 30.68 5 32.3 5S35 6.055 35 7.636v13.182c0 6.546-4.67 11.848-11 12.965V56a2 2 0 0 1-2 2h-1a2 2 0 0 1-2-2V33.783c-6.33-1.117-11-6.419-11-12.965V10.273 7.636C8 6.055 9.08 5 10.7 5s2.7 1.055 2.7 2.636v13.182c0 3.624 2.295 6.559 5.6 7.55V7a2 2 0 0 1 2-2h1a2 2 0 0 1 2 2v21.367zM46 10a1 1 0 0 0-1 1v22a1 1 0 0 0 1 1h4V10h-4z" fill="#E0E0E0"/>
</g>
</svg>
